<svg xmlns="http://www.w3.org/2000/svg" width="754" height="955" fill="none" viewBox="0 0 754 955">
  <path fill="#91FF6A" stroke="#0A0A0A" stroke-linejoin="round" stroke-width="2" d="M407.022 146.717c33.876-30.328 37.856-87.198 8.189-119.164-28.023-33.622-83.932-35.428-116.853-3.828-1.696 1.635 5.545-3.144 6.253-4.099-88.827 42.725-199.699 126.993-165.868 239.303 61.925 144.361 244.787 79.757 364.538 55.604 9.13-1.146 18.289-.084 27.2 1.452-17.901-9.947-33.414-47.521-13.535-69.542C367.518 357.137 187.333 416.436 45.861 538.596c-14.54 16.62-27.501 35.035-36.643 55.199-15.114 36.311-7.22 79.316 19.399 105.899 13.71 13.154 31.39 22.267 50.125 25.911 16.55 3.047 38.393 14.208 55.257 12.416C307.98 706.254 464.271 606.036 634.852 560.55c-32.863-6.23-57.022-48.865-42.612-82.538-7.346 10.147-15.849 19.474-25.072 27.893-118.393 95.274-262.416 167.389-344.986 301.423-5.988 11.749-10.55 24.285-12.846 37.196-2.99 20.926.71 42.758 10.348 60.917 28.057 55.927 96.604 52.351 150.144 42.363 17.07-1.784 34.121-3.988 51.06-7.169 52.383-1.642 95.951-59.018 80.855-110.08-11.5-51.264-70.187-71.029-116.895-54.175-24.327 3.407-48.825 5.31-73.107 8.99 45.701 2.321 74.219 57.117 54.443 99.106 99.957-145.3 298-189.415 378.744-349.548 7.287-18.608 8.988-38.82 6.425-58.168-3.031-24.122-15.92-45.919-33.951-61.019-18.742-15.043-42.65-22.739-66.787-23.917-19.416-.955-38.995 1.532-58.21 5.463-162.58 46.378-317.03 128.158-482.398 161.424 46.837 4.95 68.982 65.181 47.135 103.938 4.214-4.907 5.199-10.457 9.715-13.155 148.098-107.172 322.937-169.515 464.825-286.54 14.026-14.865 26.314-32 33.2-51.373 40.308-99.863-62.568-179.402-153.328-166.659-78.976 6.599-156.489 41.496-236.292 34.09 21.375 4.115 28.102 31.776 17.823 49.122 2.719-3.332 10.376-12.598 10.112-12.518 31.246-29.443 71.698-40.966 103.825-68.899Z"/>
</svg>